<svg width="274" height="156" viewBox="0 0 274 156" fill="none" xmlns="http://www.w3.org/2000/svg">
<g clip-path="url(#clip0_15_36)">
<rect width="274" height="156" rx="16" fill="#1C1F2C"/>
<rect width="274" height="156" rx="16" fill="url(#paint0_linear_15_36)"/>
<path opacity="0.5" d="M241.062 75.8372C223.033 75.8372 208.367 90.5031 208.367 108.532C208.367 126.561 223.033 141.227 241.062 141.227C259.091 141.227 273.999 126.561 273.999 108.532C273.999 90.5031 259.091 75.8372 241.062 75.8372ZM244.791 126.039C244.759 126.051 244.726 126.046 244.695 126.057V130.329C244.695 132.337 243.07 133.961 241.062 133.961C239.054 133.961 237.429 132.337 237.429 130.329V126.032C235.036 125.224 232.744 123.69 230.784 121.353C229.493 119.817 229.691 117.525 231.231 116.237C232.767 114.946 235.066 115.145 236.347 116.685C238.27 118.973 240.444 119.881 242.303 119.214C243.733 118.692 244.695 117.32 244.695 115.798C244.695 113.793 243.066 112.165 241.062 112.165C235.052 112.165 230.164 107.276 230.164 101.267C230.161 99.1242 230.791 97.0286 231.974 95.2426C233.157 93.4566 234.842 92.0597 236.816 91.227C237.016 91.1422 237.227 91.147 237.429 91.0749V86.7356C237.429 84.7276 239.054 83.1028 241.062 83.1028C243.07 83.1028 244.695 84.7276 244.695 86.7356V91.0814C246.576 91.7169 248.41 92.7271 250.048 94.3134C251.488 95.7077 251.524 98.0065 250.126 99.4504C248.732 100.891 246.429 100.923 244.989 99.5284C243.222 97.8149 241.268 97.2259 239.65 97.9179C238.991 98.1955 238.429 98.6614 238.034 99.2571C237.639 99.8529 237.428 100.552 237.429 101.267C237.429 103.271 239.057 104.9 241.062 104.9C247.071 104.9 251.96 109.788 251.96 115.798C251.96 120.363 249.08 124.479 244.791 126.039ZM153.634 112.165C151.626 112.165 150.001 113.79 150.001 115.798V152.367C150.001 154.375 151.626 156 153.634 156H164.532V112.165H153.634Z" fill="url(#paint1_linear_15_36)"/>
<path opacity="0.5" d="M236.159 54.6746L210.73 32.8779C209.375 31.7072 207.36 31.7072 206.004 32.8779L180.575 54.6746C180.011 55.1565 179.608 55.8001 179.422 56.5184C179.235 57.2366 179.274 57.9949 179.532 58.6905C179.789 59.3871 180.253 59.9882 180.862 60.4126C181.471 60.8371 182.196 61.0644 182.938 61.064H193.836V156H219.266C221.274 156 222.898 154.375 222.898 152.367V144.081C209.98 137.453 201.102 124.023 201.102 108.532C201.102 93.0412 209.98 79.6116 222.898 72.9832V61.0642H233.797C234.539 61.0646 235.264 60.8373 235.873 60.4128C236.482 59.9884 236.946 59.3873 237.203 58.6908C237.461 57.9951 237.5 57.2368 237.313 56.5185C237.127 55.8001 236.724 55.1564 236.159 54.6746Z" fill="url(#paint2_linear_15_36)"/>
<path opacity="0.5" d="M175.672 83.1028C173.664 83.1028 172.04 84.7276 172.04 86.7356V156H186.571V83.1028H175.672Z" fill="url(#paint3_linear_15_36)"/>
</g>
<defs>
<linearGradient id="paint0_linear_15_36" x1="137" y1="7.17128e-06" x2="274" y2="156" gradientUnits="userSpaceOnUse">
<stop stop-color="#232C1C" stop-opacity="0"/>
<stop offset="1" stop-color="#FEC706" stop-opacity="0.2"/>
</linearGradient>
<linearGradient id="paint1_linear_15_36" x1="209.001" y1="75.1908" x2="185.895" y2="154.494" gradientUnits="userSpaceOnUse">
<stop stop-color="#625E3B"/>
<stop offset="1" stop-color="#42432D" stop-opacity="0"/>
</linearGradient>
<linearGradient id="paint2_linear_15_36" x1="206.962" y1="31" x2="140.471" y2="100.155" gradientUnits="userSpaceOnUse">
<stop stop-color="#625E3B"/>
<stop offset="1" stop-color="#42432D" stop-opacity="0"/>
</linearGradient>
<linearGradient id="paint3_linear_15_36" x1="178.954" y1="82.515" x2="150.011" y2="95.316" gradientUnits="userSpaceOnUse">
<stop stop-color="#625E3B"/>
<stop offset="1" stop-color="#42432D" stop-opacity="0"/>
</linearGradient>
<clipPath id="clip0_15_36">
<rect width="274" height="156" rx="16" fill="white"/>
</clipPath>
</defs>
</svg>
