<svg width="274" height="156" viewBox="0 0 274 156" fill="none" xmlns="http://www.w3.org/2000/svg">
<g clip-path="url(#clip0_15_47)">
<rect width="274" height="156" rx="16" fill="#1C1F2C"/>
<rect width="274" height="156" rx="16" fill="url(#paint0_linear_15_47)"/>
<path d="M269.121 99.2324C269.143 99.5794 269.112 99.9278 269.029 100.266L261.381 130.86C261.193 131.609 260.762 132.275 260.154 132.751C259.547 133.228 258.798 133.489 258.026 133.493L212.134 133.725H166.224C165.448 133.725 164.695 133.466 164.084 132.988C163.472 132.51 163.038 131.841 162.851 131.089L155.202 100.378C155.118 100.031 155.087 99.6735 155.111 99.3172C152.152 98.385 150 95.6162 150 92.3533C150 88.3273 153.275 85.0523 157.301 85.0523C161.327 85.0523 164.602 88.3273 164.602 92.3533C164.602 94.6205 163.563 96.649 161.936 97.9891L171.512 107.637C173.933 110.076 177.291 111.474 180.727 111.474C184.79 111.474 188.663 109.545 191.102 106.313L206.84 85.4603C206.161 84.7837 205.622 83.9797 205.255 83.0942C204.887 82.2088 204.698 81.2595 204.699 80.3009C204.699 76.275 207.974 73 212 73C216.026 73 219.301 76.275 219.301 80.3009C219.301 82.2534 218.526 84.0256 217.273 85.337C217.277 85.3425 217.282 85.3472 217.286 85.3532L232.91 106.263C235.348 109.526 239.235 111.475 243.31 111.475C246.777 111.475 250.038 110.124 252.489 107.672L262.126 98.0359C260.465 96.6963 259.398 94.6483 259.398 92.3533C259.398 88.3273 262.673 85.0523 266.699 85.0523C270.725 85.0523 274 88.3273 274 92.3533C274 95.5291 271.958 98.2302 269.121 99.2324ZM260.634 144.619C260.634 143.697 260.268 142.812 259.616 142.16C258.964 141.508 258.08 141.142 257.158 141.142H167.229C166.307 141.142 165.422 141.508 164.77 142.16C164.118 142.812 163.752 143.697 163.752 144.619V152.963C163.752 153.885 164.118 154.769 164.77 155.421C165.422 156.073 166.307 156.439 167.229 156.439H257.158C258.08 156.439 258.964 156.073 259.616 155.421C260.268 154.769 260.634 153.885 260.634 152.963V144.619Z" fill="url(#paint1_linear_15_47)"/>
</g>
<defs>
<linearGradient id="paint0_linear_15_47" x1="137" y1="7.17128e-06" x2="274" y2="156" gradientUnits="userSpaceOnUse">
<stop stop-color="#1C1F2C" stop-opacity="0"/>
<stop offset="1" stop-color="#2906FE" stop-opacity="0.2"/>
</linearGradient>
<linearGradient id="paint1_linear_15_47" x1="209.001" y1="72.3272" x2="184.13" y2="154.337" gradientUnits="userSpaceOnUse">
<stop stop-color="#453B62"/>
<stop offset="1" stop-color="#342D43" stop-opacity="0"/>
</linearGradient>
<clipPath id="clip0_15_47">
<rect width="274" height="156" rx="16" fill="white"/>
</clipPath>
</defs>
</svg>
