<svg width="274" height="156" viewBox="0 0 274 156" fill="none" xmlns="http://www.w3.org/2000/svg">
<rect width="274" height="156" rx="16" fill="#1C1F2C"/>
<rect width="274" height="156" rx="16" fill="url(#paint0_linear_15_51)"/>
<path d="M270.709 76.2551L232.589 70.4323L215.503 34.0383C214.227 31.3206 209.768 31.3206 208.492 34.0383L191.411 70.4323L153.291 76.2551C152.587 76.3632 151.927 76.6632 151.383 77.122C150.838 77.5809 150.43 78.181 150.205 78.8563C149.979 79.5316 149.943 80.2561 150.102 80.9502C150.261 81.6443 150.609 82.2812 151.106 82.7909L178.799 111.177L172.253 151.306C172.136 152.024 172.223 152.76 172.505 153.43C172.787 154.101 173.251 154.678 173.846 155.097C174.44 155.516 175.141 155.759 175.867 155.798C176.593 155.838 177.315 155.672 177.952 155.321L212 136.504L246.048 155.326C246.685 155.677 247.407 155.843 248.133 155.803C248.86 155.764 249.56 155.521 250.154 155.102C250.749 154.683 251.213 154.106 251.495 153.435C251.777 152.765 251.864 152.029 251.747 151.311L245.201 111.182L272.894 82.7961C273.393 82.2865 273.742 81.6492 273.901 80.9544C274.061 80.2595 274.026 79.5341 273.8 78.8578C273.574 78.1816 273.166 77.5808 272.621 77.1216C272.075 76.6624 271.414 76.3625 270.709 76.2551Z" fill="url(#paint1_linear_15_51)"/>
<defs>
<linearGradient id="paint0_linear_15_51" x1="137" y1="7.17128e-06" x2="274" y2="156" gradientUnits="userSpaceOnUse">
<stop stop-color="#1C1F2C" stop-opacity="0"/>
<stop offset="1" stop-color="#FE0606" stop-opacity="0.2"/>
</linearGradient>
<linearGradient id="paint1_linear_15_51" x1="209.003" y1="31.0017" x2="159.277" y2="141.503" gradientUnits="userSpaceOnUse">
<stop stop-color="#623B3B"/>
<stop offset="1" stop-color="#432D2D" stop-opacity="0"/>
</linearGradient>
</defs>
</svg>
