<svg width="552" height="604" viewBox="0 0 552 604" fill="none" xmlns="http://www.w3.org/2000/svg">
<g clip-path="url(#clip0_14_10)">
<rect width="552" height="604" rx="32" fill="#1C1F2C"/>
<g opacity="0.4">
<path d="M254.944 76.1656L224.777 111.451C208.934 101.458 195.406 96.2185 184.194 95.7318C165.913 95.2457 150.251 101.523 137.21 114.565C126.728 125.047 120.45 137.174 118.377 150.946C115.573 168.862 118.436 188.057 126.965 208.531C135.495 229.006 153.043 252.77 179.61 279.824C175.468 259.837 176.2 241.19 181.808 223.884C187.415 206.577 196.496 191.647 209.05 179.093C230.989 157.153 257.742 146.609 289.307 147.46C320.873 148.067 349.452 161.167 375.044 186.758C391.861 203.576 403.864 222.892 411.053 244.707C418.242 266.279 419.338 287.241 414.339 307.595C409.341 327.948 398.797 346.169 382.709 362.258C355.285 389.682 322.865 401.994 285.45 399.193C247.912 396.271 205.989 371.655 159.68 325.346C107.887 273.553 79.7983 226.329 75.414 183.673C71.6386 146.501 83.8894 113.777 112.167 85.4996C133.252 64.4137 156.41 53.0776 181.638 51.4913C206.988 49.7832 231.423 58.008 254.944 76.1656ZM236.096 326.072C247.429 337.405 260.652 345.875 275.764 351.48C290.998 356.963 305.684 358.12 319.822 354.95C333.838 351.658 345.599 345.259 355.106 335.752C369.001 321.857 375.34 304.307 374.122 283.101C372.905 261.895 362.669 241.664 343.414 222.409C324.891 203.886 305.391 194.259 284.916 193.529C264.32 192.678 246.525 199.748 231.534 214.739C216.664 229.609 209.411 247.586 209.775 268.671C210.017 289.633 218.791 308.767 236.096 326.072Z" fill="url(#paint0_linear_14_10)"/>
<path d="M362.801 108.698C331.116 77.0132 308.876 48.3132 296.081 22.5985C283.286 -3.35993 278.047 -27.9783 280.364 -51.2566C282.803 -74.6568 293.774 -96.1076 313.275 -115.609C327.658 -129.991 343.197 -139.682 359.895 -144.68C376.47 -149.8 393.776 -150.41 411.814 -146.512C429.729 -142.735 448.558 -134.997 468.301 -123.299C487.922 -111.722 511.016 -92.6502 537.583 -66.0834C569.024 -34.642 591.203 -6.00295 604.12 19.8336C616.915 45.5483 622.154 70.1667 619.837 93.6888C617.519 116.967 606.549 138.418 586.926 158.041C561.086 183.881 531.531 194.913 498.259 191.137C458.284 186.509 413.132 159.029 362.801 108.698ZM396.624 74.8755C440.617 118.869 475.045 143.059 499.908 147.445C524.77 151.586 544.758 146.101 559.871 130.987C574.985 115.873 580.349 95.8854 575.963 71.0232C571.699 46.0391 547.632 11.6112 503.76 -32.2606C459.644 -76.3761 425.155 -100.505 400.293 -104.647C375.553 -108.911 355.504 -103.364 340.147 -88.0064C325.033 -72.8927 319.364 -54.4282 323.141 -32.6129C328.136 -4.94761 352.63 30.8819 396.624 74.8755Z" fill="url(#paint1_linear_14_10)"/>
</g>
<path opacity="0.2" d="M160.485 440.884L0 604H552V259L302.385 502.995C293.016 512.154 278.032 512.105 268.722 502.886L205.812 440.589C193.225 428.125 172.908 428.258 160.485 440.884Z" fill="url(#paint2_linear_14_10)"/>
<path d="M552 259.992C551.996 258.888 551.097 257.996 549.992 258L531.992 258.07C530.888 258.074 529.996 258.973 530 260.078C530.004 261.182 530.903 262.074 532.008 262.07L548.008 262.008L548.07 278.008C548.074 279.112 548.973 280.004 550.078 280C551.182 279.996 552.074 279.097 552.07 277.992L552 259.992ZM267.594 498.822L269.014 497.413L267.594 498.822ZM1.41969 605.409L164.684 440.872L161.845 438.055L-1.41969 602.591L1.41969 605.409ZM207.275 440.872L266.174 500.231L269.014 497.413L210.114 438.055L207.275 440.872ZM314.444 500.231L551.42 261.409L548.58 258.591L311.605 497.414L314.444 500.231ZM266.174 500.231C279.473 513.633 301.145 513.633 314.444 500.231L311.605 497.414C299.87 509.239 280.748 509.239 269.014 497.413L266.174 500.231ZM164.684 440.872C176.418 429.047 195.54 429.047 207.275 440.872L210.114 438.055C196.815 424.652 175.143 424.652 161.845 438.055L164.684 440.872Z" fill="#0085FF"/>
</g>
<defs>
<linearGradient id="paint0_linear_14_10" x1="373.5" y1="114.5" x2="421.5" y2="404.5" gradientUnits="userSpaceOnUse">
<stop stop-color="#2D3143"/>
<stop offset="1" stop-color="#2D3143" stop-opacity="0"/>
</linearGradient>
<linearGradient id="paint1_linear_14_10" x1="373.5" y1="114.5" x2="421.5" y2="404.5" gradientUnits="userSpaceOnUse">
<stop stop-color="#2D3143"/>
<stop offset="1" stop-color="#2D3143" stop-opacity="0"/>
</linearGradient>
<linearGradient id="paint2_linear_14_10" x1="276" y1="259" x2="276" y2="604" gradientUnits="userSpaceOnUse">
<stop stop-color="#0687FE"/>
<stop offset="1" stop-color="#1C1F2C"/>
</linearGradient>
<clipPath id="clip0_14_10">
<rect width="552" height="604" rx="32" fill="white"/>
</clipPath>
</defs>
</svg>
